<?xml version="1.0" encoding="utf-8"?>
<!-- Generator: Adobe Illustrator 26.3.1, SVG Export Plug-In . SVG Version: 6.00 Build 0)  -->
<svg version="1.1" id="图层_1" xmlns="http://www.w3.org/2000/svg" xmlns:xlink="http://www.w3.org/1999/xlink" x="0px" y="0px"
	 viewBox="0 0 31.9 13.6" style="enable-background:new 0 0 31.9 13.6;" xml:space="preserve">
<style type="text/css">
	.st0{fill:#FFFFFF;stroke:#FFFFFF;stroke-width:0.75;stroke-miterlimit:10;}
	.st1{fill:none;stroke:#FFFFFF;stroke-width:1.5;stroke-miterlimit:10;}
</style>
<g id="图层_2_00000170987509863464446320000006119882648535350452_">
	<g id="图层_2-2">
		<path class="st0" d="M10,0.4v0.8H3C2,1.1,1.1,1.8,1.1,2.8s0.7,1.9,1.7,1.9c0.1,0,0.2,0,0.3,0h4.4c1.4,0,2.6,1.2,2.6,2.6
			C10,8.8,8.8,10,7.4,10h-7V9.2h7c1,0,1.8-0.8,1.8-1.8c0-1-0.8-1.8-1.8-1.8H3C1.6,5.6,0.4,4.4,0.4,3S1.6,0.4,3,0.4H10z"/>
		<path class="st0" d="M22,1.2V0.4h9.6v0.8L22,1.2z M29,4.8v0.8h-6.2V10H22V4.8H29z"/>
		<path class="st1" d="M11.6,0.8h7.7c0.2,0,0.3,0.4,0.1,0.5l-6.8,4.8c-0.2,0.1-0.1,0.5,0.1,0.5h6.8c0.2,0,0.3,0.4,0.1,0.5L11.6,13"
			/>
	</g>
</g>
</svg>
