<svg xmlns="http://www.w3.org/2000/svg" viewBox="0 0 31.94 13.58"><defs><style>.cls-1{fill:#231815;stroke-width:0.75px;}.cls-1,.cls-2{stroke:#231815;stroke-miterlimit:10;}.cls-2{fill:none;stroke-width:1.5px;}</style></defs><g id="图层_2" data-name="图层 2"><g id="图层_2-2" data-name="图层 2"><path class="cls-1" d="M10,.38v.8H3A1.8,1.8,0,1,0,3,4.77H7.37a2.6,2.6,0,0,1,0,5.2h-7V9.16h7a1.79,1.79,0,0,0,0-3.58H3A2.6,2.6,0,0,1,3,.38Z"/><path class="cls-1" d="M22,1.18V.38h9.6v.8Zm7,3.59v.81H22.78V10H22V4.77Z"/><path class="cls-2" d="M11.59.78h7.67c.23,0,.29.41.08.53L12.55,6.08c-.22.12-.15.54.08.54h6.76c.21,0,.29.37.11.51L11.59,13"/></g></g></svg>